<svg width="76" height="69" viewBox="0 0 76 69" fill="none" xmlns="http://www.w3.org/2000/svg">
<path d="M75.7848 8.40894C72.9793 9.77597 69.9899 10.6821 66.8731 11.122C70.0794 8.99556 72.5266 5.65394 73.6771 1.62619C70.6877 3.60602 67.3871 5.00447 63.8695 5.78488C61.031 2.42755 56.9854 0.348206 52.5719 0.348206C44.0092 0.348206 37.1156 8.06849 37.1156 17.5329C37.1156 18.8947 37.2193 20.2041 37.4739 21.4507C24.6156 20.7541 13.2378 13.9085 5.59452 3.48032C4.26012 6.052 3.4774 8.99556 3.4774 12.1643C3.4774 18.1143 6.23578 23.3886 10.3474 26.4422C7.86252 26.3898 5.42477 25.5884 3.35952 24.3261C3.35952 24.3785 3.35952 24.4466 3.35952 24.5147C3.35952 32.8635 8.72069 39.7981 15.751 41.3956C14.4921 41.778 13.12 41.9613 11.696 41.9613C10.7058 41.9613 9.70616 41.8984 8.76784 41.668C10.7718 48.4717 16.4583 53.4736 23.2199 53.636C17.9577 58.2085 11.2763 60.9635 4.04322 60.9635C2.77483 60.9635 1.55832 60.9006 0.341797 60.7278C7.19297 65.6354 15.3125 68.4376 24.0686 68.4376C52.5295 68.4376 68.0896 42.2494 68.0896 19.5494C68.0896 18.79 68.0661 18.0567 68.0331 17.3286C71.1026 14.9089 73.6818 11.8867 75.7848 8.40894Z" fill="white"/>
</svg>
