<svg width="74" height="74" viewBox="0 0 74 74" fill="none" xmlns="http://www.w3.org/2000/svg">
<path d="M16.5482 23.125H0V74H16.5482V23.125Z" fill="white"/>
<path d="M61.6235 23.7216C61.4478 23.6661 61.2812 23.606 61.0962 23.5551C60.8742 23.5042 60.6522 23.4626 60.4256 23.4256C59.5469 23.2499 58.5849 23.125 57.4564 23.125C47.8086 23.125 41.6898 30.1411 39.6733 32.8514V23.125H23.125V74H39.6733V46.25C39.6733 46.25 52.1793 28.8322 57.4564 41.625C57.4564 53.0441 57.4564 74 57.4564 74H74V39.6686C74 31.9819 68.7321 25.5763 61.6235 23.7216Z" fill="white"/>
<path d="M8.09375 16.1875C12.5638 16.1875 16.1875 12.5638 16.1875 8.09375C16.1875 3.6237 12.5638 0 8.09375 0C3.6237 0 0 3.6237 0 8.09375C0 12.5638 3.6237 16.1875 8.09375 16.1875Z" fill="white"/>
</svg>
