<svg width="65" height="66" viewBox="0 0 65 66" fill="none" xmlns="http://www.w3.org/2000/svg">
<path d="M44.6875 0H20.3125C9.09594 0 0 9.23588 0 20.625V45.375C0 56.7641 9.09594 66 20.3125 66H44.6875C55.9041 66 65 56.7641 65 45.375V20.625C65 9.23588 55.9041 0 44.6875 0ZM58.9062 45.375C58.9062 53.3363 52.5281 59.8125 44.6875 59.8125H20.3125C12.4719 59.8125 6.09375 53.3363 6.09375 45.375V20.625C6.09375 12.6638 12.4719 6.1875 20.3125 6.1875H44.6875C52.5281 6.1875 58.9062 12.6638 58.9062 20.625V45.375Z" fill="white"/>
<path d="M32.5 16.5C23.5259 16.5 16.25 23.8879 16.25 33C16.25 42.1121 23.5259 49.5 32.5 49.5C41.4741 49.5 48.75 42.1121 48.75 33C48.75 23.8879 41.4741 16.5 32.5 16.5ZM32.5 43.3125C26.9019 43.3125 22.3438 38.6842 22.3438 33C22.3438 27.3116 26.9019 22.6875 32.5 22.6875C38.0981 22.6875 42.6562 27.3116 42.6562 33C42.6562 38.6842 38.0981 43.3125 32.5 43.3125Z" fill="white"/>
<path d="M49.9685 17.4611C51.1644 17.4611 52.1338 16.4767 52.1338 15.2625C52.1338 14.0482 51.1644 13.0638 49.9685 13.0638C48.7727 13.0638 47.8032 14.0482 47.8032 15.2625C47.8032 16.4767 48.7727 17.4611 49.9685 17.4611Z" fill="white"/>
</svg>
