<svg width="66" height="83" viewBox="0 0 66 83" fill="none" xmlns="http://www.w3.org/2000/svg">
<path d="M65.4564 34.4999C65.7617 32.568 65.9521 30.4499 66.0001 28.0747C65.9817 17.8902 61.1064 14.2864 60.1683 12.5969C61.5499 4.88024 59.9395 1.37016 59.1905 0.168566C56.428 -0.811966 49.5795 2.69931 45.8375 5.1711C39.7365 3.3852 26.8433 3.55951 22.0082 5.63334C13.0872 -0.75455 8.36878 0.219449 8.36878 0.219449C8.36878 0.219449 5.31838 5.68938 7.56239 13.6916C4.62716 17.432 2.43936 20.0766 2.43936 27.0912C2.43936 28.7712 2.5437 30.3587 2.72076 31.8861C5.24858 45.1772 15.7802 50.9112 26.1253 51.9C24.5685 53.0829 22.6996 55.3214 22.4411 57.9152C20.485 59.1799 16.5503 59.598 13.4906 58.636C9.20354 57.2814 7.56239 48.7918 1.14235 50.0029C-0.246791 50.2628 0.029285 51.1791 1.23226 51.9602C3.18816 53.2288 5.03027 54.8058 6.45018 58.1805C7.54073 60.7714 9.83442 65.3973 17.0863 65.3973C19.9651 65.3973 21.9816 65.0571 21.9816 65.0571C21.9816 65.0571 22.0364 71.6592 22.0364 74.2341C22.0364 77.1973 18.0373 78.0293 18.0373 79.451C18.0373 80.0164 19.3609 80.07 20.4246 80.07C22.5268 80.07 26.9007 78.319 26.9007 75.239C26.9007 72.7916 26.9397 64.5672 26.9397 63.1268C26.9397 59.9798 28.6263 58.9777 28.6263 58.9777C28.6263 58.9777 28.8327 75.7772 28.2204 78.0295C27.5024 80.6782 26.2016 80.3019 26.2016 81.4806C26.2016 83.2397 31.4599 81.9107 33.204 78.0603C34.5533 75.0528 33.9491 58.5784 33.9491 58.5784L35.3557 58.5478C35.3557 58.5478 35.3719 66.093 35.3234 69.5399C35.2727 73.1102 34.9043 77.6236 37.0249 79.7539C38.4168 81.1549 42.681 83.6132 42.681 81.3667C42.681 80.0647 39.6949 78.9887 39.6949 75.4613V59.2117C41.509 59.2117 41.8839 64.5531 41.8839 64.5531L42.5378 74.4765C42.5378 74.4765 42.1036 78.0976 46.4496 79.6088C47.9839 80.1461 51.266 80.2923 51.4198 79.3903C51.574 78.4861 47.4678 77.149 47.4288 74.3463C47.4076 72.6393 47.5053 71.6403 47.5053 64.2154C47.5053 56.7948 46.5084 54.0496 43.0346 51.862C53.1083 50.8282 63.5714 46.3293 65.4564 34.4999Z" fill="white"/>
</svg>
